<svg width="23" height="22" viewBox="0 0 23 22" fill="none" xmlns="http://www.w3.org/2000/svg">
<path fill-rule="evenodd" clip-rule="evenodd" d="M11.1519 0.619629C8.12325 0.619629 7.74337 0.631668 6.554 0.682993C5.367 0.734083 4.55625 0.912006 3.847 1.17217C3.11362 1.44119 2.49175 1.80118 1.87175 2.38629C1.25175 2.97152 0.870499 3.55863 0.585499 4.25088C0.309749 4.92047 0.121249 5.68562 0.0671244 6.80605C0.0127494 7.92872 0 8.28717 0 11.1461C0 14.0049 0.0127494 14.3634 0.0671244 15.4861C0.121249 16.6065 0.309749 17.3716 0.585499 18.0412C0.870499 18.7335 1.25175 19.3206 1.87175 19.9057C2.49175 20.4909 3.11362 20.8509 3.847 21.1199C4.55625 21.3801 5.367 21.558 6.554 21.6091C7.74337 21.6604 8.12325 21.6725 11.1519 21.6725C14.1805 21.6725 14.5604 21.6604 15.7497 21.6091C16.9367 21.558 17.7475 21.3801 18.4567 21.1199C19.1901 20.8509 19.812 20.4909 20.432 19.9057C21.052 19.3206 21.4332 18.7335 21.7182 18.0412C21.994 17.3716 22.1825 16.6065 22.2366 15.4861C22.291 14.3634 22.3037 14.0049 22.3037 11.1461C22.3037 8.28717 22.291 7.92872 22.2366 6.80605C22.1825 5.68562 21.994 4.92047 21.7182 4.25088C21.4332 3.55863 21.052 2.97152 20.432 2.38629C19.812 1.80118 19.1901 1.44119 18.4567 1.17217C17.7475 0.912006 16.9367 0.734083 15.7497 0.682993C14.5604 0.631668 14.1805 0.619629 11.1519 0.619629ZM11.1519 2.5162C14.1296 2.5162 14.4822 2.52693 15.6582 2.57755C16.7454 2.62439 17.336 2.79595 17.729 2.94002C18.2495 3.13104 18.621 3.35911 19.0112 3.72747C19.4015 4.09584 19.6431 4.4465 19.8454 4.93781C19.9981 5.30877 20.1799 5.86615 20.2295 6.89242C20.2831 8.00247 20.2945 8.33531 20.2945 11.1461C20.2945 13.9568 20.2831 14.2896 20.2295 15.3996C20.1799 16.426 19.9981 16.9833 19.8454 17.3543C19.6431 17.8456 19.4015 18.1963 19.0112 18.5646C18.621 18.933 18.2495 19.1611 17.729 19.352C17.336 19.4962 16.7454 19.6677 15.6582 19.7144C14.4824 19.7652 14.1297 19.7758 11.1519 19.7758C8.174 19.7758 7.82137 19.7652 6.6455 19.7144C5.55825 19.6677 4.96775 19.4962 4.57475 19.352C4.05425 19.1611 3.68275 18.933 3.2925 18.5646C2.90237 18.1963 2.66063 17.8456 2.45838 17.3543C2.30563 16.9833 2.12388 16.426 2.07425 15.3996C2.02063 14.2896 2.00925 13.9568 2.00925 11.1461C2.00925 8.33531 2.02063 8.00247 2.07425 6.89242C2.12388 5.86615 2.30563 5.30877 2.45838 4.93781C2.66063 4.4465 2.90237 4.09584 3.2925 3.72747C3.68275 3.35911 4.05425 3.13104 4.57475 2.94002C4.96775 2.79595 5.55825 2.62439 6.6455 2.57755C7.8215 2.52693 8.17413 2.5162 11.1519 2.5162Z" fill="#00261B"/>
<path fill-rule="evenodd" clip-rule="evenodd" d="M10.8516 5.54297C7.53518 5.54297 4.84668 8.08069 4.84668 11.2111C4.84668 14.3416 7.53518 16.8792 10.8516 16.8792C14.1679 16.8792 16.8564 14.3416 16.8564 11.2111C16.8564 8.08069 14.1679 5.54297 10.8516 5.54297ZM10.8516 14.8548C8.71956 14.8548 6.99131 13.2235 6.99131 11.2111C6.99131 9.19864 8.71956 7.56732 10.8516 7.56732C12.9836 7.56732 14.7118 9.19864 14.7118 11.2111C14.7118 13.2235 12.9836 14.8548 10.8516 14.8548Z" fill="#00261B"/>
<path fill-rule="evenodd" clip-rule="evenodd" d="M18.3145 5.62365C18.3145 6.33914 17.7001 6.91929 16.942 6.91929C16.184 6.91929 15.5693 6.33914 15.5693 5.62365C15.5693 4.90816 16.184 4.32812 16.942 4.32812C17.7001 4.32812 18.3145 4.90816 18.3145 5.62365Z" fill="#00261B"/>
</svg>
