<svg width="23" height="22" viewBox="0 0 23 22" fill="none" xmlns="http://www.w3.org/2000/svg">
<path fill-rule="evenodd" clip-rule="evenodd" d="M20.8362 0.179688H1.66C0.743753 0.179688 0 0.864974 0 1.71131V19.8853C0 20.7308 0.743753 21.4178 1.66 21.4178H20.8362C21.7537 21.4178 22.5 20.7308 22.5 19.8853V1.71131C22.5 0.864974 21.7537 0.179688 20.8362 0.179688ZM3.46124 8.34821H6.92374V18.1504H3.46124V8.34821ZM5.19374 7.04124C4.04374 7.04124 3.115 6.16316 3.115 5.08073C3.115 3.99841 4.04374 3.12034 5.19374 3.12034C6.33874 3.12034 7.26998 3.99841 7.26998 5.08073C7.26998 6.16316 6.33874 7.04124 5.19374 7.04124ZM19.0387 18.1504H15.5775V13.2492C15.5775 11.9219 15.1987 10.6607 13.8462 10.6607C12.4937 10.6607 12.1162 11.9415 12.1162 13.264V18.1504H8.65374V8.34821H12.1162V9.52692H12.2887C12.7337 8.73049 13.8462 8.05336 15.17 8.05336C18.3637 8.05336 19.0387 10.0333 19.0387 12.4324V18.1504Z" fill="#00261B"/>
</svg>
